<svg version="1.1" id="Logo" xmlns="http://www.w3.org/2000/svg" x="0" y="0" viewBox="0 0 297 297" style="enable-background:new 0 0 297 297" xml:space="preserve"><path d="M269.542 35.892c0-4.956-4.032-8.988-8.988-8.988h-77.665c-4.956 0-8.988 4.032-8.988 8.988v14.541h95.642V35.892zM93.584 233.486c36.462 0 66.126-29.664 66.126-66.126s-29.664-66.126-66.126-66.126-66.126 29.664-66.126 66.126 29.664 66.126 66.126 66.126zm-32.476-98.602c17.907-17.905 47.044-17.905 64.951 0 8.674 8.675 13.452 20.209 13.452 32.476s-4.777 23.801-13.453 32.475c-8.673 8.673-20.207 13.451-32.474 13.451s-23.801-4.777-32.475-13.451c-8.674-8.675-13.452-20.209-13.452-32.475-.001-12.267 4.777-23.801 13.451-32.476z"/><path d="M173.901 167.36c0 17.902-5.892 34.451-15.831 47.82H297v-95.64H158.069c9.94 13.369 15.832 29.918 15.832 47.82zM13.267 167.36c0-17.902 5.892-34.452 15.832-47.821H0v95.641h29.098c-9.94-13.369-15.831-29.918-15.831-47.82zM116.024 189.8c5.995-5.994 9.296-13.963 9.296-22.44 0-8.477-3.301-16.447-9.296-22.441-5.994-5.995-13.962-9.295-22.44-9.295s-16.446 3.3-22.44 9.295c-5.995 5.994-9.296 13.963-9.296 22.441 0 8.476 3.301 16.446 9.296 22.44 12.373 12.374 32.506 12.374 44.88 0zM280.655 64.623H16.345C7.332 64.623 0 71.955 0 80.968v24.38h42.598c13.878-11.431 31.644-18.305 50.985-18.305s37.107 6.874 50.985 18.305H297v-24.38c0-9.013-7.332-16.345-16.345-16.345zm-28.147 27.736h-54.916a7.096 7.096 0 0 1 0-14.192h54.916a7.096 7.096 0 0 1 0 14.192zM93.584 247.678c-19.342 0-37.108-6.874-50.987-18.306H0v24.38c0 9.013 7.332 16.345 16.345 16.345h264.31c9.013 0 16.345-7.332 16.345-16.345v-24.38H144.57c-13.878 11.431-31.644 18.306-50.986 18.306z"/></svg>