<svg version="1.1" id="shopping-basket" xmlns="http://www.w3.org/2000/svg" x="0" y="0" viewBox="0 0 489.901 489.901" style="enable-background:new 0 0 489.901 489.901" xml:space="preserve"><path d="M469.2 122.031h-129l58.3-51c8.3-7.3 9.4-20.8 2.1-29.1s-20.8-9.4-29.1-2.1l-93.9 82.2H20.8c-11.4 0-20.8 9.4-20.8 20.8 0 20.8 21.6 20.8 21.6 20.8l69.9 275.7c2.1 9.4 10.4 15.6 19.8 15.6h266.3c9.4 0 17.7-6.2 21.8-15.6l69.9-275.7c10.9-.6 19.6-8.7 20.6-20.7.1-11.6-9.3-20.9-20.7-20.9zM362 414.331H126.9l-64.5-250.7h363.1l-63.5 250.7z"/><path d="M168 304.031h59.8v60.9c0 8.9 7.2 16.1 16.1 16.1 8.9 0 16.1-7.2 16.1-16.1v-60.9h59.8c8.9 0 16.1-7.2 16.1-16.1 0-8.9-7.2-16.1-16.1-16.1H260v-59.8c0-8.9-7.2-16.1-16.1-16.1-8.9 0-16.1 7.2-16.1 16.1v59.8H168c-8.9 0-16.1 7.2-16.1 16.1 0 8.9 7.2 16.1 16.1 16.1z"/></svg>